<svg data-v-fde0c5aa="" xmlns="http://www.w3.org/2000/svg" viewBox="0 0 300 300" class="iconAbove"><!----><defs data-v-fde0c5aa=""><!----></defs><rect data-v-fde0c5aa="" fill="transparent" x="0" y="0" width="300px" height="300px" class="logo-background-square"></rect><defs data-v-fde0c5aa=""><!----></defs><g data-v-fde0c5aa="" id="14cdc368-b6ab-4753-92de-fa5d4a552d87" fill="#000000" transform="matrix(4.741784101250484,0,0,4.741784101250484,6.300238571651501,173.50985907849943)"><path d="M13.46 11.58L13.46 11.58L13.46 11.58Q13.46 12.60 13.11 13.15L13.11 13.15L15.13 13.15L15.13 13.15Q15.00 13.19 14.83 13.34L14.83 13.34L14.83 13.34Q14.66 13.49 14.48 13.65L14.48 13.65L14.48 13.65Q13.99 14.08 13.80 14.08L13.80 14.08L11.77 14.08L11.77 14.08Q12.11 13.58 12.11 12.70L12.11 12.70L12.11 12.70Q12.11 11.83 12.07 11.02L12.07 11.02L12.07 11.02Q12.02 10.21 12.00 9.63L12.00 9.63L12.00 9.63Q11.97 9.04 11.95 8.66L11.95 8.66L11.95 8.66Q11.94 8.28 11.92 7.89L11.92 7.89L11.92 7.89Q11.87 6.75 11.85 6.38L11.85 6.38L11.85 6.38Q11.24 7.44 10.61 8.58L10.61 8.58L10.61 8.58Q9.97 9.71 9.52 10.50L9.52 10.50L9.52 10.50Q9.07 11.29 8.81 11.80L8.81 11.80L8.81 11.80Q8.54 12.31 8.25 12.82L8.25 12.82L8.25 12.82Q8.19 12.92 7.60 13.30L7.60 13.30L7.60 13.30Q7.01 13.69 6.92 13.75L6.92 13.75L6.92 13.75Q6.55 12.60 5.98 11.61L5.98 11.61L5.98 11.61Q5.41 10.62 5.04 10.02L5.04 10.02L5.04 10.02Q4.68 9.43 4.32 8.83L4.32 8.83L3.23 7.02L3.23 7.02Q2.94 10.55 2.79 11.34L2.79 11.34L2.79 11.34Q2.63 12.13 2.49 12.53L2.49 12.53L2.49 12.53Q2.35 12.93 2.14 13.15L2.14 13.15L4.33 13.15L4.33 13.15Q3.19 14.08 3.00 14.08L3.00 14.08L0.75 14.08L0.75 14.08Q1.15 13.69 1.42 12.35L1.42 12.35L1.42 12.35Q1.72 10.86 2.12 5.17L2.12 5.17L0.40 5.17L0.40 5.17Q0.90 4.68 1.59 4.30L1.59 4.30L1.59 4.30Q1.68 4.25 1.73 4.25L1.73 4.25L3.45 4.25L3.45 4.25Q4.03 5.20 4.59 6.14L4.59 6.14L5.73 8.03L5.73 8.03Q6.02 8.51 6.31 8.99L6.31 8.99L6.31 8.99Q6.60 9.46 6.88 9.94L6.88 9.94L6.88 9.94Q7.56 11.11 7.91 11.92L7.91 11.92L7.91 11.92Q8.56 10.78 9.44 9.17L9.44 9.17L9.44 9.17Q11.01 6.28 11.77 4.97L11.77 4.97L11.77 4.97Q11.90 4.76 12.78 4.24L12.78 4.24L12.78 4.24Q12.98 4.12 13.10 4.04L13.10 4.04L13.10 4.04Q13.26 7.03 13.33 8.78L13.33 8.78L13.33 8.78Q13.41 10.53 13.43 10.88L13.43 10.88L13.43 10.88Q13.46 11.22 13.46 11.58ZM20.56 12.63L20.56 9.21L20.56 9.21Q20.56 8.34 20.07 8.34L20.07 8.34L20.07 8.34Q19.91 8.34 19.76 8.41L19.76 8.41L19.76 8.41Q20.53 7.75 20.86 7.58L20.86 7.58L20.86 7.58Q21.18 7.42 21.41 7.42L21.41 7.42L21.41 7.42Q21.64 7.42 21.77 7.58L21.77 7.58L21.77 7.58Q21.90 7.74 21.90 7.98L21.90 7.98L21.90 12.02L21.90 12.02Q21.90 14.31 20.77 16.15L20.77 16.15L20.77 16.15Q19.98 17.42 18.69 17.96L18.69 17.96L18.69 17.96Q18.04 18.24 17.25 18.24L17.25 18.24L17.25 18.24Q16.57 18.24 16.18 17.94L16.18 17.94L16.18 17.94Q16.04 17.82 16.04 17.69L16.04 17.69L16.04 17.69Q16.04 17.55 16.13 17.44L16.13 17.44L16.13 17.44Q16.21 17.33 16.35 17.22L16.35 17.22L16.35 17.22Q16.49 17.10 16.66 16.99L16.66 16.99L16.66 16.99Q16.83 16.88 16.99 16.79L16.99 16.79L16.99 16.79Q17.40 16.54 17.52 16.44L17.52 16.44L17.52 16.44Q17.35 16.58 17.35 16.74L17.35 16.74L17.35 16.74Q17.35 16.90 17.51 17.01L17.51 17.01L17.51 17.01Q17.66 17.12 17.87 17.19L17.87 17.19L17.87 17.19Q18.27 17.32 18.69 17.32L18.69 17.32L18.69 17.32Q19.12 17.32 19.45 17.10L19.45 17.10L19.45 17.10Q19.78 16.88 20.00 16.51L20.00 16.51L20.00 16.51Q20.21 16.15 20.32 15.69L20.32 15.69L20.32 15.69Q20.43 15.22 20.48 14.75L20.48 14.75L20.48 14.75Q20.54 14.25 20.56 13.04L20.56 13.04L20.56 13.04Q19.04 14.21 17.92 14.21L17.92 14.21L17.92 14.21Q17.14 14.21 16.74 13.70L16.74 13.70L16.74 13.70Q16.39 13.24 16.39 12.44L16.39 12.44L16.39 9.69L16.39 9.69Q16.39 8.31 15.59 8.31L15.59 8.31L15.59 8.31Q15.34 8.31 15.11 8.41L15.11 8.41L15.11 8.41Q15.93 7.68 16.46 7.46L16.46 7.46L16.46 7.46Q16.71 7.37 16.98 7.37L16.98 7.37L16.98 7.37Q17.24 7.37 17.39 7.47L17.39 7.47L17.39 7.47Q17.54 7.57 17.62 7.72L17.62 7.72L17.62 7.72Q17.73 7.98 17.73 8.49L17.73 8.49L17.73 11.32L17.73 11.32Q17.73 12.29 18.07 12.75L18.07 12.75L18.07 12.75Q18.48 13.28 19.41 13.28L19.41 13.28L19.41 13.28Q19.74 13.28 20.06 13.09L20.06 13.09L20.06 13.09Q20.38 12.91 20.56 12.63L20.56 12.63ZM31.74 5.83L31.74 5.83L31.74 5.83Q31.97 5.60 31.97 5.49L31.97 5.49L31.97 5.49Q31.97 5.39 31.87 5.31L31.87 5.31L31.87 5.31Q31.77 5.24 31.62 5.18L31.62 5.18L31.62 5.18Q31.47 5.13 31.28 5.09L31.28 5.09L31.28 5.09Q31.09 5.05 30.91 5.03L30.91 5.03L30.91 5.03Q30.56 4.99 30.31 4.99L30.31 4.99L30.31 4.99Q30.06 4.99 29.73 5.04L29.73 5.04L29.73 5.04Q29.41 5.09 29.13 5.22L29.13 5.22L29.13 5.22Q28.51 5.54 28.51 6.16L28.51 6.16L28.51 6.16Q28.51 6.78 28.74 7.15L28.74 7.15L28.74 7.15Q28.97 7.53 29.34 7.77L29.34 7.77L29.34 7.77Q29.71 8.02 30.18 8.18L30.18 8.18L30.18 8.18Q30.66 8.35 31.16 8.49L31.16 8.49L31.16 8.49Q31.66 8.63 32.13 8.80L32.13 8.80L32.13 8.80Q32.61 8.96 32.98 9.21L32.98 9.21L32.98 9.21Q33.80 9.78 33.80 10.79L33.80 10.79L33.80 10.79Q33.80 11.79 32.96 12.63L32.96 12.63L32.96 12.63Q32.25 13.36 31.06 13.82L31.06 13.82L31.06 13.82Q29.98 14.25 29.00 14.25L29.00 14.25L29.00 14.25Q28.39 14.25 27.89 14.10L27.89 14.10L27.89 14.10Q27.40 13.96 27.19 13.85L27.19 13.85L27.19 13.85Q26.71 13.61 26.71 13.28L26.71 13.28L26.71 13.28Q26.71 12.76 28.28 11.90L28.28 11.90L28.28 11.90Q28.08 12.13 28.08 12.34L28.08 12.34L28.08 12.34Q28.08 12.54 28.21 12.69L28.21 12.69L28.21 12.69Q28.34 12.84 28.55 12.94L28.55 12.94L28.55 12.94Q28.77 13.05 29.03 13.12L29.03 13.12L29.03 13.12Q29.29 13.19 29.55 13.23L29.55 13.23L29.55 13.23Q30.03 13.30 30.42 13.30L30.42 13.30L30.42 13.30Q30.81 13.30 31.19 13.23L31.19 13.23L31.19 13.23Q31.56 13.16 31.86 12.98L31.86 12.98L31.86 12.98Q32.52 12.58 32.52 11.73L32.52 11.73L32.52 11.73Q32.52 10.40 30.84 9.76L30.84 9.76L30.84 9.76Q30.36 9.58 29.86 9.42L29.86 9.42L29.86 9.42Q29.35 9.26 28.88 9.09L28.88 9.09L28.88 9.09Q28.40 8.92 28.03 8.68L28.03 8.68L28.03 8.68Q27.19 8.13 27.19 7.24L27.19 7.24L27.19 7.24Q27.19 6.49 28.03 5.70L28.03 5.70L28.03 5.70Q28.76 5.02 29.86 4.53L29.86 4.53L29.86 4.53Q30.91 4.05 31.64 4.05L31.64 4.05L31.64 4.05Q32.31 4.05 32.71 4.18L32.71 4.18L32.71 4.18Q33.11 4.30 33.22 4.36L33.22 4.36L33.22 4.36Q33.33 4.43 33.33 4.52L33.33 4.52L33.33 4.52Q33.33 4.60 33.23 4.72L33.23 4.72L33.23 4.72Q33.13 4.84 32.98 4.98L32.98 4.98L32.98 4.98Q32.83 5.11 32.65 5.25L32.65 5.25L32.65 5.25Q32.47 5.39 32.29 5.50L32.29 5.50L32.29 5.50Q31.88 5.77 31.74 5.83ZM43.20 13.15L45.39 13.15L45.39 13.15Q45.31 13.16 44.95 13.48L44.95 13.48L44.95 13.48Q44.24 14.08 44.06 14.08L44.06 14.08L41.75 14.08L41.75 14.08Q42.11 13.68 42.21 13.44L42.21 13.44L42.21 13.44Q42.36 13.06 42.36 12.45L42.36 12.45L42.36 9.42L37.27 9.42L37.27 11.43L37.27 11.43Q37.27 12.08 37.21 12.31L37.21 12.31L37.21 12.31Q37.11 12.67 36.78 13.15L36.78 13.15L38.97 13.15L38.97 13.15Q38.88 13.17 38.55 13.45L38.55 13.45L38.55 13.45Q38.22 13.74 38.08 13.84L38.08 13.84L38.08 13.84Q37.78 14.08 37.64 14.08L37.64 14.08L35.32 14.08L35.32 14.08Q35.83 13.69 35.91 13.00L35.91 13.00L35.91 13.00Q35.94 12.76 35.94 12.45L35.94 12.45L35.94 5.17L34.66 5.17L34.92 4.96L34.92 4.96Q35.79 4.25 35.98 4.25L35.98 4.25L38.97 4.25L38.97 4.25Q38.89 4.25 38.55 4.54L38.55 4.54L38.55 4.54Q38.22 4.83 38.08 4.94L38.08 4.94L38.08 4.94Q37.78 5.17 37.64 5.17L37.64 5.17L37.27 5.17L37.27 8.49L42.36 8.49L42.36 5.17L41.08 5.17L41.34 4.96L41.34 4.96Q42.21 4.25 42.41 4.25L42.41 4.25L45.39 4.25L45.39 4.25Q45.31 4.25 44.97 4.54L44.97 4.54L44.97 4.54Q44.64 4.83 44.51 4.94L44.51 4.94L44.51 4.94Q44.19 5.17 44.06 5.17L44.06 5.17L43.69 5.17L43.69 11.43L43.69 11.43Q43.69 12.08 43.63 12.31L43.63 12.31L43.63 12.31Q43.53 12.68 43.20 13.15L43.20 13.15ZM51.77 8.18L51.77 8.18L51.77 8.18Q52.12 8.57 52.31 9.08L52.31 9.08L52.31 9.08Q52.51 9.59 52.51 10.10L52.51 10.10L52.51 10.10Q52.51 10.62 52.36 11.10L52.36 11.10L52.36 11.10Q52.21 11.59 51.94 12.04L51.94 12.04L51.94 12.04Q51.67 12.50 51.30 12.89L51.30 12.89L51.30 12.89Q50.93 13.28 50.50 13.58L50.50 13.58L50.50 13.58Q49.57 14.20 48.62 14.20L48.62 14.20L48.62 14.20Q47.50 14.20 46.72 13.33L46.72 13.33L46.72 13.33Q45.96 12.50 45.96 11.38L45.96 11.38L45.96 11.38Q45.96 10.42 46.55 9.45L46.55 9.45L46.55 9.45Q47.41 7.99 48.91 7.48L48.91 7.48L48.91 7.48Q49.39 7.31 49.92 7.31L49.92 7.31L49.92 7.31Q50.46 7.31 50.94 7.54L50.94 7.54L50.94 7.54Q51.42 7.78 51.77 8.18ZM48.54 8.22L48.54 8.22L48.54 8.22Q47.85 8.22 47.54 8.89L47.54 8.89L47.54 8.89Q47.29 9.41 47.29 10.06L47.29 10.06L47.29 10.06Q47.29 10.72 47.47 11.28L47.47 11.28L47.47 11.28Q47.64 11.85 47.98 12.29L47.98 12.29L47.98 12.29Q48.74 13.29 49.94 13.29L49.94 13.29L49.94 13.29Q50.63 13.29 50.95 12.59L50.95 12.59L50.95 12.59Q51.17 12.07 51.17 11.40L51.17 11.40L51.17 11.40Q51.17 10.08 50.44 9.15L50.44 9.15L50.44 9.15Q49.70 8.22 48.54 8.22ZM52.97 8.43L52.97 8.43L52.97 8.43Q54.17 7.36 54.92 7.36L54.92 7.36L54.92 7.36Q55.54 7.36 55.62 8.04L55.62 8.04L55.62 8.04Q55.64 8.23 55.64 8.42L55.64 8.42L55.64 8.42Q56.33 7.92 56.62 7.76L56.62 7.76L56.62 7.76Q57.26 7.41 57.85 7.41L57.85 7.41L57.85 7.41Q58.44 7.41 58.90 7.64L58.90 7.64L58.90 7.64Q59.36 7.87 59.66 8.26L59.66 8.26L59.66 8.26Q60.21 9.02 60.21 10.29L60.21 10.29L60.21 10.29Q60.21 11.79 58.86 13.00L58.86 13.00L58.86 13.00Q58.06 13.73 57.03 14.04L57.03 14.04L57.03 14.04Q56.53 14.18 56.17 14.18L56.17 14.18L56.17 14.18Q55.81 14.18 55.64 14.15L55.64 14.15L55.64 16.11L55.64 16.11Q55.64 16.86 55.16 17.31L55.16 17.31L56.83 17.31L56.83 17.31Q56.75 17.32 56.58 17.46L56.58 17.46L56.58 17.46Q56.41 17.61 56.21 17.78L56.21 17.78L56.21 17.78Q55.67 18.24 55.50 18.24L55.50 18.24L53.83 18.24L53.83 18.24Q54.30 17.62 54.30 16.76L54.30 16.76L54.30 9.18L54.30 9.18Q54.30 8.73 54.20 8.58L54.20 8.58L54.20 8.58Q54.00 8.30 53.63 8.30L53.63 8.30L53.63 8.30Q53.27 8.30 52.97 8.43ZM55.64 8.96L55.64 12.28L55.64 12.28Q56.22 13.28 57.42 13.28L57.42 13.28L57.42 13.28Q58.67 13.28 58.84 12.03L58.84 12.03L58.84 12.03Q58.89 11.66 58.89 11.15L58.89 11.15L58.89 11.15Q58.89 10.65 58.77 10.13L58.77 10.13L58.77 10.13Q58.65 9.60 58.37 9.21L58.37 9.21L58.37 9.21Q57.76 8.34 56.55 8.34L56.55 8.34L56.55 8.34Q56.01 8.34 55.64 8.96L55.64 8.96Z"></path></g><defs data-v-fde0c5aa=""><linearGradient data-v-fde0c5aa="" gradientTransform="rotate(25)" id="954e4a10-79fd-4165-b400-e695f30592fb" x1="0%" y1="0%" x2="100%" y2="0%"><stop data-v-fde0c5aa="" offset="0%" stop-color="#288B58" stop-opacity="1"></stop><stop data-v-fde0c5aa="" offset="100%" stop-color="#1522F1" stop-opacity="1"></stop></linearGradient></defs><g data-v-fde0c5aa="" id="45e6851e-fbfd-4351-9130-3e84bd7b22aa" stroke="none" fill="url(#954e4a10-79fd-4165-b400-e695f30592fb)" transform="matrix(5.386666666666668,0,0,5.386666666666668,42.26666666666666,-0.4000000000000199)"><path clip-rule="evenodd" d="M12 10.5v-3H8v2h2v13c0 1.1.9 2 2 2v5h2.3c-.2.3-.3.6-.3 1 0 1.1.9 2 2 2s2-.9 2-2c0-.4-.1-.7-.3-1h6.6c-.2.3-.3.6-.3 1 0 1.1.9 2 2 2s2-.9 2-2c0-.4-.1-.7-.3-1H30v-2H14v-3h16c1.1 0 2-.9 2-2v-12H12zm2 12h-2v-2h2v2zm0-4h-2v-2h2v2zm0-4h-2v-2h2v2zm4 8h-2v-2h2v2zm0-4h-2v-2h2v2zm0-4h-2v-2h2v2zm4 8h-2v-2h2v2zm0-4h-2v-2h2v2zm0-4h-2v-2h2v2zm4 8h-2v-2h2v2zm0-4h-2v-2h2v2zm0-4h-2v-2h2v2zm4 8h-2v-2h2v2zm0-4h-2v-2h2v2zm0-4h-2v-2h2v2z"></path></g><!----></svg>